nColumns=19
nRows=61
DataType=double
version=3
OpenSimVersion=4.1
endheader
time	ground_force_1_vx	ground_force_1_vy	ground_force_1_vz	ground_force_1_px	ground_force_1_py	ground_force_1_pz	ground_force_1_mx	ground_force_1_my	ground_force_1_mz	ground_force_2_vx	ground_force_2_vy	ground_force_2_vz	ground_force_2_px	ground_force_2_py	ground_force_2_pz	ground_force_2_mx	ground_force_2_my	ground_force_2_mz
0	0	0	0	0.0948155	0	-0.258213	0	0	0	0	0	0	1.44466	0	-0.366099	0	0	0
0.005	0	0	0	0.0902095	0	-0.258649	0	0	0	0	0	0	1.44825	0	-0.365127	0	0	0
0.01	0	0	0	0.0894945	0	-0.259495	0	0	0	0	0	0	1.44813	0	-0.365289	0	0	0
0.015	0	0	0	0.0924925	0	-0.261951	0	0	0	0	0	0	1.44516	0	-0.366571	0	0	0
0.02	0	0	0	0.0992725	0	-0.261748	0	0	0	0	0	0	1.44005	0	-0.369144	0	0	0
0.025	0	0	0	0.108926	0	-0.262985	0	0	0	0	0	0	1.43089	0	-0.372593	0	0	0
0.03	0	0	0	0.121046	0	-0.264283	0	0	0	0	0	0	1.41949	0	-0.37458	0	0	0
0.035	0	0	0	0.135414	0	-0.264358	0	0	0	0	0	0	1.40496	0	-0.37531	0	0	0
0.04	0	0	0	0.151171	0	-0.265289	0	0	0	0	0	0	1.38793	0	-0.374808	0	0	0
0.045	0	0	0	0.169117	0	-0.264886	0	0	0	0	0	0	1.36842	0	-0.373319	0	0	0
0.05	0	0	0	0.188232	0	-0.263929	0	0	0	0	0	0	1.3473	0	-0.371296	0	0	0
0.055	0	0	0	0.209158	0	-0.261732	0	0	0	0	0	0	1.32406	0	-0.369236	0	0	0
0.06	0	0	0	0.23005	0	-0.260207	0	0	0	0	0	0	1.29923	0	-0.366857	0	0	0
0.065	0	0	0	0.252279	0	-0.25816	0	0	0	-18.5604	19.2869	-18.918	1.27293	0	-0.364613	0	-2.07689	0
0.07	0	0	0	0.27555	0	-0.255842	0	0	0	-82.5475	136.47	6.46644	1.17785	0	-0.393653	0	-10.1035	0
0.075	0	0	0	0.299656	0	-0.253597	0	0	0	-173.56	337.291	53.8302	1.08612	0	-0.418446	0	-10.4324	0
0.08	0	0	0	0.324202	0	-0.251521	0	0	0	-271.999	618.233	125.313	1.08936	0	-0.398909	0	-2.40383	0
0.085	0	0	0	0.34936	0	-0.249354	0	0	0	-343.891	944.441	213.015	1.08581	0	-0.383324	0	11.5116	0
0.09	0	0	0	0.37471	0	-0.247499	0	0	0	-366.302	1290.58	289.316	1.075	0	-0.370879	0	18.3971	0
0.095	0	0	0	0.400511	0	-0.246169	0	0	0	-358.799	1653.36	325.261	1.04956	0	-0.360741	0	6.63996	0
0.1	0	0	0	0.426311	0	-0.244482	0	0	0	-353.426	2017.5	300.119	1.01463	0	-0.352991	0	-15.255	0
0.105	0	0	0	0.452378	0	-0.242857	0	0	0	-351.625	2348.16	209.825	0.984405	0	-0.347443	0	-29.8866	0
0.11	0	0	0	0.478682	0	-0.241559	0	0	0	-352.635	2619.96	70.7823	0.960944	0	-0.343533	0	-32.4146	0
0.115	0	0	0	0.505441	0	-0.240532	0	0	0	-351.374	2825.02	-86.0644	0.940786	0	-0.340614	0	-27.2558	0
0.12	0	0	0	0.532583	0	-0.239973	0	0	0	-331.18	2961.68	-225.533	0.921284	0	-0.338357	0	-20.022	0
0.125	0	0	0	0.560778	0	-0.240248	0	0	0	-283.61	3034.39	-319.768	0.897087	0	-0.336882	0	-11.9267	0
0.13	0	0	0	0.590319	0	-0.240299	0	0	0	-199.609	3049.17	-352.491	0.865641	0	-0.335978	0	-2.57086	0
0.135	0	0	0	0.621545	0	-0.240449	0	0	0	-77.8499	3018.53	-329.887	0.829427	0	-0.335382	0	4.95828	0
0.14	0	0	0	0.654764	0	-0.240767	0	0	0	58.1523	2955.31	-276.141	0.792201	0	-0.334658	0	6.56943	0
0.145	0	0	0	0.690229	0	-0.240814	0	0	0	181.337	2858.14	-221.107	0.756977	0	-0.33402	0	2.32552	0
0.15	0	0	0	0.727688	0	-0.241426	0	0	0	283.545	2719.03	-176.097	0.725452	0	-0.333505	0	-4.97022	0
0.155	0	0	0	0.76582	0	-0.243354	0	0	0	368.375	2539.51	-135.298	0.698342	0	-0.332876	0	-12.5122	0
0.16	0	0	0	0.806993	0	-0.243268	0	0	0	434.853	2319.87	-89.8113	0.674689	0	-0.33188	0	-22.6086	0
0.165	0	0	0	0.849269	0	-0.243589	0	0	0	477.814	2054.27	-42.1607	0.651413	0	-0.33066	0	-39.2106	0
0.17	0	0	0	0.892147	0	-0.243485	0	0	0	495.907	1738.41	-4.45036	0.621668	0	-0.329762	0	-58.6406	0
0.175	0	0	0	0.936699	0	-0.24236	0	0	0	497.439	1380.19	7.61661	0.57439	0	-0.330606	0	-66.7724	0
0.18	0	0	0	0.980283	0	-0.241617	0	0	0	489.373	1003.08	-14.2297	0.492857	0	-0.335586	0	-48.0589	0
0.185	0	0	0	1.02403	0	-0.240928	0	0	0	466.569	645.064	-65.3085	0.356804	0	-0.348206	0	8.192	0
0.19	0	0	0	1.0671	0	-0.239939	0	0	0	416.487	346.508	-124.645	0.146213	0	-0.372398	0	100.15	0
0.195	0	0	0	1.10944	0	-0.238575	0	0	0	333.975	136.279	-163.521	0.169546	0	-0.367009	0	203	0
0.2	0	0	0	1.15049	0	-0.238388	0	0	0	228.039	15.2245	-155.299	0.350236	0	-0.339495	0	250.929	0
0.205	0	0	0	1.18998	0	-0.238807	0	0	0	0	0	0	0.32551	0	-0.34107	0	0	0
0.21	0	0	0	1.22746	0	-0.239393	0	0	0	0	0	0	0.301532	0	-0.342287	0	0	0
0.215	0	0	0	1.26348	0	-0.240694	0	0	0	0	0	0	0.279465	0	-0.342546	0	0	0
0.22	0	0	0	1.29737	0	-0.242514	0	0	0	0	0	0	0.260944	0	-0.338481	0	0	0
0.225	0	0	0	1.32886	0	-0.244646	0	0	0	0	0	0	0.240726	0	-0.333755	0	0	0
0.23	0	0	0	1.35764	0	-0.246554	0	0	0	0	0	0	0.22311	0	-0.330772	0	0	0
0.235	0	0	0	1.38398	0	-0.248474	0	0	0	0	0	0	0.210333	0	-0.327562	0	0	0
0.24	0	0	0	1.40713	0	-0.250515	0	0	0	0	0	0	0.200494	0	-0.324655	0	0	0
0.245	0	0	0	1.42702	0	-0.252509	0	0	0	0	0	0	0.192896	0	-0.321711	0	0	0
0.25	0	0	0	1.44194	0	-0.254645	0	0	0	0	0	0	0.182198	0	-0.32079	0	0	0
0.255	0	0	0	1.45595	0	-0.256312	0	0	0	0	0	0	0.174807	0	-0.320935	0	0	0
0.26	0	0	0	1.4648	0	-0.258124	0	0	0	0	0	0	0.169721	0	-0.320671	0	0	0
0.265	0	0	0	1.46963	0	-0.259873	0	0	0	0	0	0	0.167928	0	-0.324329	0	0	0
0.27	0	0	0	1.47113	0	-0.261332	0	0	0	0	0	0	0.168476	0	-0.327285	0	0	0
0.275	0	0	0	1.46922	0	-0.262465	0	0	0	0	0	0	0.172409	0	-0.331402	0	0	0
0.28	0	0	0	1.46446	0	-0.262775	0	0	0	0	0	0	0.1788	0	-0.334248	0	0	0
0.285	0	0	0	1.45668	0	-0.262442	0	0	0	0	0	0	0.18887	0	-0.339028	0	0	0
0.29	0	0	0	1.44632	0	-0.261681	0	0	0	0	0	0	0.198796	0	-0.341978	0	0	0
0.295	0	0	0	1.43309	0	-0.260973	0	0	0	0	0	0	0.211542	0	-0.346122	0	0	0
0.3	0	0	0	1.41777	0	-0.260756	0	0	0	0	0	0	0.225761	0	-0.350321	0	0	0
